<svg xmlns="http://www.w3.org/2000/svg" xmlns:xlink="http://www.w3.org/1999/xlink" width="283" height="248.129" viewBox="0 0 283 248.129">
  <defs>
    <filter id="Rectangle_13" x="125" y="37" width="158" height="155" filterUnits="userSpaceOnUse">
      <feOffset dy="3" input="SourceAlpha"/>
      <feGaussianBlur stdDeviation="3" result="blur"/>
      <feFlood flood-opacity="0.161"/>
      <feComposite operator="in" in2="blur"/>
      <feComposite in="SourceGraphic"/>
    </filter>
  </defs>
  <g id="MessnoteLogo" transform="translate(-667.968 -361.898)">
    <rect id="Rectangle_12" data-name="Rectangle 12" width="245" height="100" rx="27" transform="translate(667.968 361.898)" fill="#959fd6"/>
    <rect id="Rectangle_10" data-name="Rectangle 10" width="245" height="100" rx="27" transform="translate(667.968 411.898)" fill="#6675c9"/>
    <rect id="Rectangle_11" data-name="Rectangle 11" width="245" height="100" rx="27" transform="translate(667.968 459.898)" fill="#4153b8"/>
    <path id="Path_5" data-name="Path 5" d="M25.149-1l194.67.99c13.889,0,25.149,11.969,25.149,26.733V72.267c0,14.764-11.26,26.733-25.149,26.733H25.149C11.26,99,0,87.031,0,72.267V26.723C0,11.959,11.26-1,25.149-1Z" transform="translate(668 511.026)" fill="#22328e"/>
    <g transform="matrix(1, 0, 0, 1, 667.97, 361.9)" filter="url(#Rectangle_13)">
      <rect id="Rectangle_13-2" data-name="Rectangle 13" width="140" height="137" rx="18" transform="translate(134 43)" fill="#011065"/>
    </g>
    <path id="Union_8" data-name="Union 8" d="M33.682,88.7V57.146H.016c-.011-.344-.016-.68-.016-1A30.881,30.881,0,0,1,2.986,42.876,34.027,34.027,0,0,1,11.13,32.041a37.346,37.346,0,0,1,3.248-2.6V4a4,4,0,0,1,4-4H56.595a4,4,0,0,1,4,4V28.731a37.368,37.368,0,0,1,4.275,3.31,34.027,34.027,0,0,1,8.144,10.835A30.881,30.881,0,0,1,76,56.144c0,.333-.005.67-.016,1H42.319V88.7L38.034,92.8Z" transform="translate(877.906 414.837) rotate(45)" fill="#fff"/>
  </g>
</svg>
